<svg width="17" height="17" viewBox="0 0 17 17" fill="none" xmlns="http://www.w3.org/2000/svg">
<g id="arrow-right-from-bracket-solid (1) 1">
<path id="Vector" d="M16.6879 9.25039C17.1029 8.83535 17.1029 8.16133 16.6879 7.74629L12.4379 3.49629C12.0229 3.08125 11.3488 3.08125 10.9338 3.49629C10.5187 3.91133 10.5187 4.58535 10.9338 5.00039L13.3709 7.4375H6.375C5.7873 7.4375 5.3125 7.9123 5.3125 8.5C5.3125 9.0877 5.7873 9.5625 6.375 9.5625H13.3709L10.9338 11.9996C10.5187 12.4146 10.5187 13.0887 10.9338 13.5037C11.3488 13.9188 12.0229 13.9188 12.4379 13.5037L16.6879 9.25371V9.25039ZM5.3125 3.1875C5.9002 3.1875 6.375 2.7127 6.375 2.125C6.375 1.5373 5.9002 1.0625 5.3125 1.0625H3.1875C1.42773 1.0625 0 2.49023 0 4.25V12.75C0 14.5098 1.42773 15.9375 3.1875 15.9375H5.3125C5.9002 15.9375 6.375 15.4627 6.375 14.875C6.375 14.2873 5.9002 13.8125 5.3125 13.8125H3.1875C2.5998 13.8125 2.125 13.3377 2.125 12.75V4.25C2.125 3.6623 2.5998 3.1875 3.1875 3.1875H5.3125Z" fill="#422AD5"/>
<path id="Vector_2" d="M16.6879 9.18789C17.1029 8.77285 17.1029 8.09883 16.6879 7.68379L12.4379 3.43379C12.0229 3.01875 11.3488 3.01875 10.9338 3.43379C10.5187 3.84883 10.5187 4.52285 10.9338 4.93789L13.3709 7.375H6.375C5.7873 7.375 5.3125 7.8498 5.3125 8.4375C5.3125 9.0252 5.7873 9.5 6.375 9.5H13.3709L10.9338 11.9371C10.5187 12.3521 10.5187 13.0262 10.9338 13.4412C11.3488 13.8563 12.0229 13.8563 12.4379 13.4412L16.6879 9.19121V9.18789ZM5.3125 3.125C5.9002 3.125 6.375 2.6502 6.375 2.0625C6.375 1.4748 5.9002 1 5.3125 1H3.1875C1.42773 1 0 2.42773 0 4.1875V12.6875C0 14.4473 1.42773 15.875 3.1875 15.875H5.3125C5.9002 15.875 6.375 15.4002 6.375 14.8125C6.375 14.2248 5.9002 13.75 5.3125 13.75H3.1875C2.5998 13.75 2.125 13.2752 2.125 12.6875V4.1875C2.125 3.5998 2.5998 3.125 3.1875 3.125H5.3125Z" fill="#422AD5"/>
</g>
</svg>
