<svg width="17" height="13" viewBox="0 0 17 13" fill="none" xmlns="http://www.w3.org/2000/svg">
<path d="M15.4825 0.652344C15.9747 0.625 16.4122 1.00781 16.3848 1.47266V10.7148C16.3848 11.1523 16.0293 11.5352 15.5645 11.5625C14.2247 11.6172 11.4903 11.8906 9.60356 12.8477C9.30278 12.9844 8.94731 12.793 8.94731 12.4648V2.51172C8.94731 2.375 9.02935 2.23828 9.16606 2.15625C10.9981 1.03516 13.9786 0.734375 15.4825 0.652344ZM7.88091 2.15625C8.01763 2.23828 8.09966 2.375 8.09966 2.51172V12.4648C8.09966 12.793 7.74419 12.9844 7.44341 12.8477C5.55669 11.8906 2.82231 11.6172 1.48247 11.5625C1.01763 11.5352 0.662158 11.1523 0.662158 10.7148V1.47266C0.662158 1.00781 1.07231 0.625 1.5645 0.652344C3.06841 0.734375 6.04888 1.03516 7.88091 2.15625Z" fill="#422AD5"/>
</svg>
