<svg width="14" height="15" viewBox="0 0 14 15" fill="none" xmlns="http://www.w3.org/2000/svg">
<path d="M13.9625 7.75C13.9625 11.4961 10.9 14.5312 7.18125 14.5312C3.43516 14.5312 0.4 11.4961 0.4 7.75C0.4 4.03125 3.43516 0.96875 7.18125 0.96875C10.9 0.96875 13.9625 4.03125 13.9625 7.75ZM7.34531 3.21094C5.86875 3.21094 4.91172 3.83984 4.17344 4.96094C4.06406 5.125 4.09141 5.31641 4.22813 5.42578L5.18516 6.13672C5.32188 6.24609 5.54063 6.21875 5.65 6.08203C6.14219 5.45312 6.47031 5.09766 7.20859 5.09766C7.75547 5.09766 8.46641 5.45312 8.46641 6C8.46641 6.41016 8.11094 6.62891 7.56406 6.92969C6.93516 7.28516 6.0875 7.72266 6.0875 8.84375V8.95312C6.0875 9.14453 6.22422 9.28125 6.41563 9.28125H7.94688C8.11094 9.28125 8.275 9.14453 8.275 8.95312V8.92578C8.275 8.16016 10.5445 8.13281 10.5445 6C10.5445 4.41406 8.90391 3.21094 7.34531 3.21094ZM7.18125 9.99219C6.47031 9.99219 5.92344 10.5664 5.92344 11.25C5.92344 11.9609 6.47031 12.5078 7.18125 12.5078C7.86484 12.5078 8.43906 11.9609 8.43906 11.25C8.43906 10.5664 7.86484 9.99219 7.18125 9.99219Z" fill="#422AD5"/>
</svg>
